<svg width="90" height="80" viewBox="0 0 90 80" fill="none" xmlns="http://www.w3.org/2000/svg">
<g clip-path="url(#clip0_1967_1810)">
<path d="M14.6009 53.9403L27.012 0H8.28007C6.0846 0.00220613 3.9797 0.875327 2.42727 2.42776C0.87484 3.98018 0.00171785 6.08509 -0.000488281 8.28056V71.7083C0.000244385 73.9053 0.87254 76.0122 2.42497 77.5667C3.9774 79.1212 6.08313 79.9963 8.28007 80H27.0009C29.1997 79.9971 31.3078 79.1228 32.8632 77.5686C34.4187 76.0145 35.2947 73.9072 35.2995 71.7083V8.28056C35.2958 6.08482 34.4217 3.98014 32.8687 2.42791C31.3157 0.875677 29.2105 0.00257063 27.0148 0" fill="white"/>
<path d="M22.3657 14.6651L22.3851 14.9429C22.9573 15.2762 23.2462 15.5471 23.8212 15.9151C25.349 16.8762 27.231 18.586 26.9935 24.4749C27.4226 25.7596 27.6115 28.2832 28.0073 29.0929C28.8032 30.6707 29.3337 31.6971 29.5657 33.186C29.5657 33.186 29.7962 35.504 30.0948 35.6721C31.674 36.0276 31.2185 36.1832 31.449 36.454C31.6935 36.7721 32.606 36.7568 32.606 37.6068C32.9077 38.0121 33.1529 38.4564 33.3351 38.9276V8.28041C33.3337 6.6036 32.6673 4.9958 31.4821 3.80958C30.2969 2.62337 28.6897 1.95558 27.0129 1.95264H20.9601C21.9323 2.29708 22.481 2.70541 22.8018 3.35264C23.5837 3.4193 24.5129 5.17208 23.0643 7.75819C23.706 8.18597 23.2032 8.82347 22.7462 9.56375C22.6073 9.80264 22.4685 10.2235 22.0351 10.1957C21.4865 11.3512 20.8226 12.4721 20.3212 12.5429C20.1685 12.7304 20.0587 13.2276 20.2865 13.461C21.024 13.7915 21.9212 14.2443 22.3698 14.6651" fill="#C8102E"/>
<path d="M33.3346 43.0754C32.9764 43.9758 32.3925 44.7689 31.6392 45.3785C30.8858 45.9881 29.9883 46.3935 29.033 46.556C28.0776 46.7184 27.0965 46.6323 26.1841 46.306C25.2716 45.9797 24.4584 45.4241 23.8227 44.6927C23.187 43.9613 22.7502 43.0786 22.5542 42.1295C22.3583 41.1805 22.4098 40.197 22.7038 39.2736C22.9978 38.3502 23.5244 37.518 24.233 36.8569C24.9416 36.1959 25.8084 35.7283 26.7499 35.499C26.0985 33.8712 24.7263 31.2323 24.318 30.3671C23.9319 29.5073 23.0013 24.1407 22.8013 23.0796C22.7555 22.8476 20.3652 24.4685 20.361 24.5657C20.2221 24.7046 18.568 29.0101 18.4985 29.2504C18.4739 29.4908 18.4619 29.7323 18.4624 29.974C18.4624 29.974 19.2749 30.0754 19.743 31.4935C20.211 32.9115 21.6166 38.0754 21.6166 38.0754C21.6166 38.0754 21.2346 38.4698 21.218 38.4462C23.0013 44.4185 22.3777 46.9823 23.1777 48.7323C24.1833 51.199 24.4541 50.8754 25.3166 52.949C25.936 54.4587 26.6263 60.4004 26.8569 60.6643C27.8194 61.8837 28.3374 62.8379 28.3374 63.5268C28.3374 64.2157 27.5221 66.2657 27.8194 67.4573C27.9999 68.1518 28.0971 69.7309 28.4208 70.0296C28.4208 70.0296 28.7194 70.6184 28.5721 70.8809C28.5305 70.9712 28.4444 71.1087 28.4833 71.2171C29.0138 73.0907 30.7277 76.2865 27.9527 77.9601H28.011C29.501 77.7284 30.8582 76.9692 31.8353 75.8207C32.8125 74.6723 33.3446 73.211 33.3346 71.7032V43.0754Z" fill="#C8102E"/>
<path d="M26.2067 70.4925C25.1887 69.5842 25.8692 69.2009 25.8276 68.8425C25.1567 66.0717 22.9567 64.3981 24.0942 63.4814C23.8164 62.5661 23.2428 61.4175 23.2609 61.4189C19.8303 59.4495 16.9109 56.2508 16.4137 55.7814C15.8123 55.1272 14.7887 54.4717 14.5956 53.9397C13.772 53.1828 9.7345 47.4495 8.78728 45.337L7.147 45.105C6.39978 42.0564 3.90812 39.5008 3.847 36.4439C3.82339 35.2883 4.37062 32.8119 4.57478 32.3189C4.77895 31.8258 5.72895 30.9953 5.72895 30.9953V30.1772C2.14978 30.28 3.17895 29.9147 2.56228 28.5231C2.12895 27.5592 2.43867 27.3481 2.59562 26.6786C3.07478 24.7064 4.67062 21.6647 5.33034 20.2897C5.53173 19.5953 6.222 17.9106 6.222 17.9106C8.89006 12.4786 9.88589 12.8772 13.0539 12.5717L13.2095 12.3467C16.3845 12.2078 15.8651 11.9703 16.3123 8.91193C15.8498 9.11054 15.7123 7.95499 15.7123 7.95499C15.4595 6.21332 16.1942 6.54388 16.5456 6.50916C16.6192 3.64804 16.9137 2.74665 18.9776 1.95776H8.28312C6.60498 1.95776 4.99548 2.62392 3.80821 3.80989C2.62094 4.99586 1.95301 6.60463 1.95117 8.28277V71.7078C1.95081 72.5396 2.11432 73.3632 2.43236 74.1318C2.75041 74.9003 3.21676 75.5987 3.80477 76.187C4.39279 76.7752 5.09094 77.2419 5.85934 77.5603C6.62775 77.8786 7.45136 78.0425 8.28312 78.0425H27.0123C24.8678 76.8842 26.1331 74.6786 26.2067 70.4925Z" fill="#1D428A"/>
</g>
<path d="M45.1514 1.76172V15.0947H55.3319V1.76172H45.1514ZM45.1514 21.9831V77.9257H55.3319V21.9831H45.1514Z" fill="#1D428A"/>
<path d="M72.7123 77.9257C82.1485 77.9257 89.3899 72.5925 89.3899 60.2171V18.9356C89.3899 7.52128 82.9977 1.76172 72.7123 1.76172H62.0005V77.9257H72.7123ZM79.2093 15.4616V64.2257C79.2093 65.313 78.7774 66.3557 78.0086 67.1245C77.2398 67.8933 76.197 68.3252 75.1098 68.3252H72.1776V11.3587H75.1063C75.6452 11.3582 76.179 11.464 76.677 11.67C77.175 11.8761 77.6275 12.1783 78.0086 12.5594C78.3897 12.9405 78.6919 13.393 78.8979 13.891C79.1039 14.389 79.2097 14.9227 79.2093 15.4616V15.4616Z" fill="#1D428A"/>
<defs>
<clipPath id="clip0_1967_1810">
<rect width="35.2986" height="80" fill="white"/>
</clipPath>
</defs>
</svg>
